<svg width="32" height="33" viewBox="0 0 32 33" fill="none" xmlns="http://www.w3.org/2000/svg">
<path d="M16.0062 3.49414C23.1062 3.49414 28.8125 9.23789 28.8125 16.3879C28.8125 23.4129 23.0312 29.1316 15.8937 29.0941C8.85623 29.0566 3.16248 23.3004 3.19373 16.1629C3.22498 9.21914 8.99373 3.49414 16.0062 3.49414ZM27.2062 16.2816C27.1625 10.0504 22.1437 5.05039 15.9875 5.09414C9.75623 5.13789 4.76248 10.1504 4.79998 16.3129C4.84373 22.5379 9.86248 27.5441 16.025 27.4941C22.2562 27.4504 27.2562 22.4379 27.2062 16.2816Z" fill="#363330"/>
<path d="M22.1375 11.0318C22.1187 11.0943 22.0937 11.2381 22.05 11.3756C21.1937 13.9506 20.3312 16.5193 19.4812 19.0943C19.3687 19.4443 19.1562 19.6506 18.8062 19.7631C16.2125 20.6256 13.6187 21.4881 11.0312 22.3568C10.6875 22.4693 10.3687 22.4568 10.1062 22.1881C9.85624 21.9318 9.83124 21.6256 9.94374 21.2881C10.8187 18.6693 11.6937 16.0443 12.5687 13.4256C12.6625 13.1318 12.8562 12.9506 13.1375 12.8568C15.7812 11.9756 18.4187 11.0943 21.0625 10.2193C21.6125 10.0318 22.125 10.3943 22.1375 11.0318ZM11.9375 20.3506C12.0312 20.3256 12.075 20.3193 12.125 20.3068C14.0375 19.6693 15.9562 19.0381 17.8625 18.3881C17.975 18.3506 18.0812 18.2068 18.1187 18.0881C18.75 16.2256 19.3687 14.3631 19.9937 12.5006C20.0187 12.4256 20.0312 12.3506 20.0625 12.2506C19.9875 12.2693 19.9437 12.2756 19.9062 12.2881C17.9937 12.9256 16.075 13.5568 14.1687 14.2068C14.0562 14.2443 13.9375 14.3818 13.9 14.5006C13.55 15.5256 13.2125 16.5506 12.8687 17.5756C12.5625 18.4818 12.2562 19.3943 11.9375 20.3506Z" fill="#363330"/>
</svg>
