<svg width="32" height="33" viewBox="0 0 32 33" fill="none" xmlns="http://www.w3.org/2000/svg">
<path d="M16.0007 18.0646C15.259 18.0646 14.5174 17.7864 13.8685 17.3229L8.58426 13.0585C8.30614 12.7804 8.21344 12.4095 8.49155 12.0387C8.76967 11.7606 9.14049 11.6679 9.51131 11.946L14.7955 16.2105C15.5372 16.7667 16.5569 16.7667 17.2986 16.2105L22.5828 11.946C22.8609 11.6679 23.3244 11.7606 23.6025 12.0387C23.8807 12.3168 23.7879 12.7804 23.5098 13.0585L18.2256 17.3229C17.484 17.7864 16.7423 18.0646 16.0007 18.0646Z" fill="#363330"/>
<path d="M10.1602 27.6132C6.26662 27.6132 3.30005 24.4612 3.30005 20.2895V12.2241C3.30005 8.05237 6.26662 4.90039 10.1602 4.90039H21.8411C23.6952 4.90039 25.5494 5.73474 26.8472 7.12532C28.1451 8.5159 28.794 10.37 28.7013 12.3168V20.3822C28.794 22.2363 28.1451 24.0904 26.8472 25.481C25.5494 26.8716 23.6952 27.7059 21.8411 27.7059H10.1602V27.6132ZM21.8411 6.38368H10.1602C7.10097 6.38368 4.87604 8.88672 4.87604 12.1314V20.1968C4.87604 23.5342 7.10097 25.9445 10.1602 25.9445H21.8411C23.3244 25.9445 24.715 25.2956 25.7348 24.2758C26.7545 23.1634 27.218 21.7728 27.1253 20.2895V12.1314C27.218 10.6481 26.6618 9.16484 25.7348 8.05237C24.6223 7.03261 23.2317 6.47638 21.8411 6.38368Z" fill="#363330"/>
</svg>
