<svg width="32" height="33" viewBox="0 0 32 33" fill="none" xmlns="http://www.w3.org/2000/svg">
<path d="M16.0836 19.3252C18.5448 19.3561 21.0493 19.6097 23.461 20.4383C24.4875 20.7908 25.4708 21.2422 26.2871 21.9781C27.1157 22.7264 27.5671 23.6168 27.2456 24.7609C27.0848 25.3298 26.7323 25.7936 26.2932 26.177C25.2482 27.0984 23.9866 27.5931 22.6695 27.9703C20.1835 28.6815 17.6296 28.8917 15.0571 28.8113C13.0535 28.7495 11.0746 28.4959 9.15145 27.9146C7.92085 27.5436 6.73972 27.0675 5.75648 26.2141C5.02678 25.5709 4.56299 24.798 4.68667 23.7776C4.77324 23.0417 5.1752 22.4728 5.70701 21.9967C6.74591 21.0691 8.01361 20.5805 9.3246 20.1971C11.5075 19.5602 13.7461 19.3438 16.0836 19.3252ZM16.467 27.2406C18.2974 27.2159 20.2145 27.0118 22.0944 26.4924C23.1518 26.2017 24.1783 25.8369 25.0565 25.1504C26.0088 24.4084 26.0026 23.7529 25.0626 23.0108C24.4257 22.5037 23.6898 22.1884 22.923 21.9224C21.2162 21.335 19.4476 21.0629 17.6543 20.9639C15.0262 20.8093 12.4227 20.9763 9.87496 21.6751C8.81752 21.9657 7.79099 22.3368 6.91906 23.0355C6.01002 23.7652 6.02239 24.4084 6.93761 25.1381C7.64258 25.6946 8.45885 26.0347 9.30605 26.3068C11.6003 27.0427 13.9563 27.2653 16.467 27.2406Z" fill="#363330"/>
<path d="M15.9785 15.6334C12.5588 15.5963 9.90588 12.8692 9.9368 9.43714C9.97391 6.1102 12.7381 3.46349 16.1393 3.49441C19.4538 3.52533 22.1129 6.31427 22.0696 9.70305C22.0263 12.9743 19.2559 15.6705 15.9785 15.6334ZM11.5199 9.55464C11.5137 12.0406 13.5235 14.0565 16.0156 14.0565C18.483 14.0565 20.4927 12.0406 20.4927 9.567C20.4927 7.09963 18.5077 5.09604 16.0465 5.08367C13.5482 5.06512 11.5261 7.06252 11.5199 9.55464Z" fill="#363330"/>
<path d="M23.2986 20.9112L23.2985 20.9112C20.9583 20.1071 18.5145 19.8561 16.0825 19.8252C13.7743 19.8438 11.587 20.0579 9.46494 20.677C8.17349 21.0547 6.99382 21.518 6.04006 22.3696L23.2986 20.9112ZM23.2986 20.9112C24.2978 21.2543 25.2081 21.6788 25.952 22.3492C26.3291 22.6898 26.5915 23.0373 26.7308 23.4002C26.8667 23.7542 26.8972 24.152 26.7644 24.6249C26.6374 25.0741 26.3543 25.4599 25.9644 25.8004L25.9626 25.8019M23.2986 20.9112L25.9626 25.8019M25.9626 25.8019C25.0009 26.6498 23.8245 27.1194 22.5318 27.4896C20.1082 28.1829 17.6083 28.3908 15.0727 28.3116L15.0725 28.3116M25.9626 25.8019L15.0725 28.3116M15.0725 28.3116C13.1003 28.2507 11.1669 28.0015 9.29611 27.436L9.29578 27.4359M15.0725 28.3116L9.29578 27.4359M9.29578 27.4359C8.08894 27.0721 6.98884 26.6211 6.08567 25.8377C5.43065 25.26 5.08609 24.6376 5.18304 23.8378L5.18324 23.836M9.29578 27.4359L5.18324 23.836M5.18324 23.836C5.25057 23.2637 5.56158 22.7981 6.04002 22.3696L5.18324 23.836ZM15.9839 15.1334L15.9841 15.1334C18.9869 15.1674 21.5299 12.691 21.5697 9.69666C21.6096 6.57317 19.161 4.02268 16.1347 3.99439L15.9839 15.1334ZM15.9839 15.1334C12.8431 15.0994 10.4087 12.6012 10.4368 9.44231M15.9839 15.1334L10.4368 9.44231M10.4368 9.44231C10.4709 6.40196 12.9986 3.96594 16.1346 3.99439L10.4368 9.44231ZM16.4719 27.7406L16.4738 27.7406C18.3353 27.7154 20.2963 27.5079 22.2269 26.9745C23.3015 26.6791 24.4063 26.2933 25.3644 25.5444C25.8721 25.1486 26.2691 24.67 26.2691 24.0806C26.2691 23.4926 25.8737 23.0143 25.3734 22.6191C24.6702 22.0595 23.8711 21.722 23.0868 21.45L23.0857 21.4497C21.3238 20.8432 19.5074 20.5655 17.6829 20.4648C15.015 20.3079 12.3551 20.4764 9.74271 21.1929L9.74245 21.193C8.66591 21.4889 7.55936 21.8816 6.60637 22.6454L6.60606 22.6456C6.11753 23.0378 5.73773 23.5119 5.74427 24.0924C5.75077 24.6691 6.13689 25.1391 6.6259 25.529L6.62779 25.5305C7.40141 26.1413 8.28337 26.5035 9.15315 26.7829L9.15333 26.7829C11.5156 27.5407 13.9294 27.7656 16.4719 27.7406ZM11.0199 9.55339C11.013 12.3162 13.2471 14.5565 16.0156 14.5565C18.7604 14.5565 20.9927 12.3154 20.9927 9.567C20.9927 6.82635 18.7874 4.59775 16.0496 4.58368C13.2756 4.56342 11.0268 6.78323 11.0199 9.55339Z" stroke="#363330"/>
</svg>
